<?xml version="1.0" encoding="iso-8859-1"?>
<!-- Uploaded to: SVG Repo, www.svgrepo.com, Generator: SVG Repo Mixer Tools -->
<svg version="1.1" id="Layer_1" xmlns="http://www.w3.org/2000/svg" xmlns:xlink="http://www.w3.org/1999/xlink" 
	 viewBox="0 0 512 512" xml:space="preserve">
<path style="fill:#A93439;" d="M283.712,36.579c0-5.822-4.763-10.585-10.585-10.585h-34.255c-5.822,0-10.585,4.763-10.585,10.585
	v8.364c0,5.822,4.763,10.585,10.585,10.585h34.255c5.822,0,10.585-4.763,10.585-10.585V36.579z"/>
<path style="fill:#FF8189;" d="M255.999,44.995c-65.885,0-122.053,41.584-143.704,99.935h287.406
	C378.052,86.579,321.885,44.995,255.999,44.995z"/>
<path style="opacity:0.2;enable-background:new    ;" d="M256.818,105.153c-4.384,0-7.939-3.553-7.939-7.939V67.423
	c0-4.384,3.554-7.939,7.939-7.939c4.384,0,7.939,3.554,7.939,7.939v29.791C264.756,101.598,261.202,105.153,256.818,105.153z"/>
<path style="opacity:0.2;enable-background:new    ;" d="M202.367,105.153c-4.384,0-7.939-3.553-7.939-7.939v-16.71
	c0-4.385,3.554-7.939,7.939-7.939c4.384,0,7.939,3.553,7.939,7.939v16.71C210.305,101.598,206.751,105.153,202.367,105.153z"/>
<path style="opacity:0.2;enable-background:new    ;" d="M311.269,105.153c-4.384,0-7.939-3.553-7.939-7.939v-16.71
	c0-4.385,3.554-7.939,7.939-7.939c4.384,0,7.939,3.553,7.939,7.939v16.71C319.207,101.598,315.653,105.153,311.269,105.153z"/>
<path style="fill:#FF8189;" d="M449.361,204.168H386.12V145.16H125.88v59.008H62.639c-11.643,0-21.169,9.526-21.169,21.169v246.627
	h429.06V225.337C470.53,213.694,461.004,204.168,449.361,204.168z"/>
<rect x="414.065" y="369.546" style="opacity:0.2;enable-background:new    ;" width="45.864" height="22.071"/>
<rect x="65.475" y="422.925" style="opacity:0.2;enable-background:new    ;" width="45.864" height="22.07"/>
<rect x="56.152" y="330.837" style="opacity:0.2;enable-background:new    ;" width="45.864" height="22.07"/>
<rect x="132.51" y="278.972" style="opacity:0.2;enable-background:new    ;" width="45.864" height="22.07"/>
<rect x="100.83" y="214.395" style="opacity:0.2;enable-background:new    ;" width="45.864" height="22.071"/>
<rect x="328.699" y="187.478" style="opacity:0.2;enable-background:new    ;" width="45.864" height="22.071"/>
<rect x="288.339" y="264.841" style="opacity:0.2;enable-background:new    ;" width="45.864" height="22.07"/>
<rect x="338.109" y="319.797" style="opacity:0.2;enable-background:new    ;" width="45.864" height="22.07"/>
<rect x="447.597" y="245.958" style="opacity:0.2;enable-background:new    ;" width="22.931" height="22.071"/>
<rect x="338.109" y="422.925" style="opacity:0.2;enable-background:new    ;" width="45.864" height="22.07"/>
<rect x="125.884" y="145.16" style="opacity:0.2;enable-background:new    ;" width="260.237" height="33.607"/>
<rect x="150.96" y="330.837" style="fill:#D1D3D3;" width="210.075" height="141.126"/>
<rect x="150.96" y="366.296" style="opacity:0.2;enable-background:new    ;" width="210.075" height="15.877"/>
<rect x="150.96" y="414.986" style="opacity:0.2;enable-background:new    ;" width="210.075" height="15.877"/>
<path style="fill:#FFB819;" d="M311.743,251.09c0,30.789-24.959,55.748-55.747,55.748s-55.747-24.959-55.747-55.748v-49.397
	c0-5.822,4.763-10.585,10.585-10.585h90.324c5.822,0,10.585,4.763,10.585,10.585V251.09z"/>
<path style="fill:#A93439;" d="M225.653,251.09c0,16.731,13.612,30.344,30.343,30.344s30.343-13.613,30.343-30.344v-29.286
	c0-4.075-3.334-7.409-7.409-7.409h-45.868c-4.075,0-7.409,3.334-7.409,7.409V251.09z"/>
<path style="fill:#A93439;" d="M426.562,151.663c0,5.822-4.763,10.585-10.585,10.585H96.023c-5.822,0-10.585-4.763-10.585-10.585
	V129.17c0-5.822,4.763-10.585,10.585-10.585h319.954c5.822,0,10.585,4.763,10.585,10.585v22.493H426.562z"/>
<path style="fill:#333E48;" d="M504.061,481.731c0,2.351-1.922,4.275-4.275,4.275H12.214c-2.352,0-4.275-1.924-4.275-4.275v-15.302
	c0-2.353,1.923-4.277,4.275-4.277h487.573c2.353,0,4.275,1.924,4.275,4.277V481.731z"/>
<rect x="129.25" y="462.152" style="fill:#A4A9AD;" width="253.483" height="23.855"/>
<g>
	<path style="fill:#00AD68;" d="M491.334,462.152c0-25.331-20.535-45.866-45.867-45.866s-45.867,20.534-45.867,45.866H491.334z"/>
	<path style="fill:#00AD68;" d="M106.05,462.152c0-22.408-18.166-40.573-40.575-40.573s-40.575,18.166-40.575,40.573H106.05z"/>
</g>
<path style="fill:#FFFFFF;" d="M432.913,283.547c0,5.822-4.763,10.585-10.585,10.585H367.14c-5.822,0-10.585-4.763-10.585-10.585
	v-26.813c0-5.822,4.763-10.585,10.585-10.585h55.188c5.822,0,10.585,4.763,10.585,10.585V283.547z"/>
<path style="opacity:0.2;enable-background:new    ;" d="M422.328,246.149H367.14c-5.822,0-10.585,4.763-10.585,10.585v14.289
	c0-5.822,4.763-10.585,10.585-10.585h55.188c5.822,0,10.585,4.763,10.585,10.585v-14.289
	C432.913,250.912,428.15,246.149,422.328,246.149z"/>
<path style="fill:#FFFFFF;" d="M79.08,283.547c0,5.822,4.763,10.585,10.585,10.585h55.188c5.822,0,10.585-4.763,10.585-10.585
	v-26.813c0-5.822-4.763-10.585-10.585-10.585H89.664c-5.822,0-10.585,4.763-10.585,10.585V283.547z"/>
<path style="opacity:0.2;enable-background:new    ;" d="M89.664,246.149h55.188c5.822,0,10.585,4.763,10.585,10.585v14.289
	c0-5.822-4.763-10.585-10.585-10.585H89.664c-5.822,0-10.585,4.763-10.585,10.585v-14.289
	C79.08,250.912,83.843,246.149,89.664,246.149z"/>
<path style="fill:#1E252B;" d="M499.786,454.213h-1.103c-2.076-13.972-9.546-26.199-20.215-34.51V225.337
	c0-16.051-13.057-29.108-29.108-29.108h-55.302v-26.043h21.919c10.213,0,18.523-8.31,18.523-18.523V129.17
	c0-10.213-8.31-18.523-18.523-18.523h-2.793v-4.442c0-4.385-3.554-7.939-7.939-7.939c-4.384,0-7.939,3.553-7.939,7.939v4.442h-6.003
	c-13.95-21.502-32.942-39.524-55.177-52.289c-13.887-7.972-28.901-13.785-44.475-17.308v-4.472c0-10.213-8.309-18.523-18.523-18.523
	h-34.255c-10.213,0-18.523,8.31-18.523,18.523v4.472c-15.574,3.523-30.589,9.335-44.477,17.308
	c-22.234,12.766-41.228,30.788-55.176,52.289h-6.003v-4.442c0-4.385-3.554-7.939-7.939-7.939c-4.384,0-7.939,3.553-7.939,7.939
	v4.442h-2.793c-10.213,0-18.523,8.31-18.523,18.523v22.493c0,10.213,8.31,18.523,18.523,18.523h21.919v26.043H62.639
	c-16.051,0-29.108,13.058-29.108,29.108v200.35c-8.256,7.242-14.041,17.228-15.909,28.526h-5.409C5.479,454.213,0,459.694,0,466.429
	v15.302c0,6.734,5.479,12.214,12.214,12.214h487.573c6.735,0,12.214-5.48,12.214-12.214v-15.302
	C512,459.694,506.521,454.213,499.786,454.213z M482.553,454.213h-74.172c3.66-17.114,18.895-29.989,37.086-29.989
	S478.893,437.099,482.553,454.213z M236.226,36.579c0-1.434,1.212-2.646,2.646-2.646h34.255c1.434,0,2.646,1.212,2.646,2.646v1.707
	c-6.541-0.807-13.144-1.23-19.774-1.23c-6.629,0-13.233,0.423-19.774,1.23v-1.707H236.226z M183.777,72.128
	c21.872-12.557,46.846-19.194,72.223-19.194c25.376,0,50.35,6.638,72.221,19.193c16.997,9.758,31.889,22.927,43.697,38.521H140.08
	C151.888,95.054,166.781,81.885,183.777,72.128z M96.023,154.309c-1.434,0-2.646-1.212-2.646-2.646V129.17
	c0-1.434,1.212-2.646,2.646-2.646h319.954c1.434,0,2.646,1.212,2.646,2.646v22.493c0,1.434-1.212,2.646-2.646,2.646H96.023z
	 M49.409,225.337c0-7.296,5.935-13.231,13.231-13.231h63.241c4.384,0,7.939-3.553,7.939-7.939v-33.981h244.363v33.981
	c0,4.385,3.554,7.939,7.939,7.939h63.241c7.296,0,13.231,5.935,13.231,13.231v185.822c-5.383-1.813-11.137-2.81-17.124-2.81
	c-26.971,0-49.366,19.949-53.216,45.866h-23.277V330.833c0-4.385-3.554-7.939-7.939-7.939H150.965c-4.384,0-7.939,3.553-7.939,7.939
	v123.38h-29.699c-3.801-22.985-23.806-40.573-47.853-40.573c-5.63,0-11.035,0.975-16.067,2.747V225.337z M353.098,338.772v115.441
	H158.903V338.772H353.098z M65.475,429.517c15.258,0,28.099,10.525,31.655,24.696H33.82
	C37.376,440.042,50.217,429.517,65.475,429.517z M121.317,478.068H15.877v-7.978h105.44V478.068z M374.806,478.068H137.194v-7.978
	h237.612V478.068z M496.123,478.068h-105.44v-7.978h105.44V478.068z M89.664,302.07h55.188c10.213,0,18.523-8.309,18.523-18.523
	v-26.813c0-10.213-8.31-18.523-18.523-18.523H89.664c-10.213,0-18.523,8.31-18.523,18.523v26.813
	C71.141,293.76,79.451,302.07,89.664,302.07z M87.018,256.734c0-1.434,1.212-2.646,2.646-2.646h55.188
	c1.434,0,2.646,1.212,2.646,2.646v26.813c0,1.434-1.212,2.646-2.646,2.646H89.664c-1.434,0-2.646-1.212-2.646-2.646V256.734z
	 M367.139,302.07h55.188c10.213,0,18.523-8.309,18.523-18.523v-26.813c0-10.213-8.31-18.523-18.523-18.523h-55.188
	c-10.213,0-18.523,8.31-18.523,18.523v26.813C348.616,293.76,356.926,302.07,367.139,302.07z M364.493,256.734
	c0-1.434,1.212-2.646,2.646-2.646h55.188c1.434,0,2.646,1.212,2.646,2.646v26.813c0,1.434-1.212,2.646-2.646,2.646h-55.188
	c-1.434,0-2.646-1.212-2.646-2.646V256.734z"/>
</svg>